<svg width="28" height="27" viewBox="0 0 28 27" fill="none" xmlns="http://www.w3.org/2000/svg">
<g clip-path="url(#clip0_2_152)">
<path d="M6.28349 26.4592V8.60711H0.349839V26.4592H6.28349ZM3.31743 6.16825C5.3866 6.16825 6.67456 4.79742 6.67456 3.08434C6.63601 1.33263 5.38668 -0.000152588 3.3567 -0.000152588C1.32703 -0.000152588 -0.000244141 1.33265 -0.000244141 3.08434C-0.000244141 4.7975 1.2874 6.16825 3.2787 6.16825H3.31725H3.31743ZM9.56775 26.4592H15.5014V16.4897C15.5014 15.9562 15.54 15.4232 15.6967 15.0417C16.1256 13.9757 17.1019 12.8716 18.7411 12.8716C20.8882 12.8716 21.7472 14.5087 21.7472 16.9086V26.459H27.6805V16.2228C27.6805 10.7394 24.7531 8.18799 20.8491 8.18799C17.6482 8.18799 16.2427 9.97722 15.4619 11.1959H15.5015V8.60674H9.56789C9.64575 10.2819 9.56789 26.4588 9.56789 26.4588L9.56775 26.4592Z" fill="black"/>
</g>
<defs>
<clipPath id="clip0_2_152">
<rect width="27.6807" height="26.4593" fill="white"/>
</clipPath>
</defs>
</svg>
