<svg width="34" height="27" viewBox="0 0 34 27" fill="none" xmlns="http://www.w3.org/2000/svg">
<path d="M30.8765 3.07456L33.5014 0.552394V0H24.4105L17.9317 16.2036L10.5621 0H1.03011V0.552394L4.09611 4.26071C4.39586 4.53477 4.55002 4.93729 4.51148 5.33981V19.9119C4.60568 20.4386 4.43868 20.9738 4.07042 21.3549L0.614746 25.5643V26.1081H10.4037V25.5557L6.95229 21.3592C6.76736 21.1715 6.62827 20.9436 6.54582 20.6933C6.46338 20.443 6.43982 20.177 6.47697 19.9162V7.30959L15.0712 26.1167H16.0689L23.4599 7.30959V22.2927C23.4599 22.6867 23.4599 22.768 23.2029 23.0293L20.5437 25.6114V26.1638H33.4415V25.6114L30.8765 23.0892C30.6538 22.9179 30.5382 22.631 30.5853 22.3527V3.81109C30.5632 3.67348 30.5785 3.53245 30.6297 3.40283C30.681 3.27321 30.7662 3.15981 30.8765 3.07456Z" fill="black"/>
</svg>
