<svg width="35" height="26" viewBox="0 0 35 26" fill="none" xmlns="http://www.w3.org/2000/svg">
<path d="M29.1397 2.11047C27.0293 1.12668 24.7444 0.412632 22.3642 7.29884e-05C22.3434 -0.00059441 22.3226 0.00332186 22.3034 0.0115465C22.2842 0.0197712 22.2671 0.0321045 22.2532 0.0476763C21.9675 0.571309 21.6343 1.25362 21.4122 1.77725C18.8876 1.39643 16.3202 1.39643 13.7957 1.77725C13.5735 1.23775 13.2403 0.571309 12.9388 0.0476763C12.923 0.015941 12.8754 7.29884e-05 12.8278 7.29884e-05C10.4476 0.412632 8.17854 1.12668 6.05227 2.11047C6.03641 2.11047 6.02054 2.12634 6.00467 2.14221C1.68867 8.60034 0.498593 14.8839 1.0857 21.1041C1.0857 21.1358 1.10156 21.1675 1.1333 21.1834C3.98948 23.2779 6.73458 24.5473 9.44795 25.3883C9.49556 25.4042 9.54316 25.3883 9.55903 25.3566C10.1937 24.4839 10.765 23.5635 11.2569 22.5956C11.2886 22.5321 11.2569 22.4687 11.1934 22.4528C10.2889 22.1037 9.43209 21.6912 8.5911 21.2151C8.52763 21.1834 8.52763 21.0882 8.57523 21.0406C8.74978 20.9136 8.92432 20.7708 9.09887 20.6439C9.1306 20.6122 9.1782 20.6122 9.20994 20.628C14.6684 23.1193 20.5553 23.1193 25.9503 20.628C25.9821 20.6122 26.0297 20.6122 26.0614 20.6439C26.2359 20.7867 26.4105 20.9136 26.585 21.0565C26.6485 21.1041 26.6485 21.1993 26.5692 21.231C25.744 21.7229 24.8713 22.1196 23.9669 22.4687C23.9034 22.4845 23.8875 22.5639 23.9034 22.6115C24.4112 23.5794 24.9824 24.4997 25.6012 25.3725C25.6488 25.3883 25.6964 25.4042 25.744 25.3883C28.4733 24.5473 31.2184 23.2779 34.0746 21.1834C34.1063 21.1675 34.1222 21.1358 34.1222 21.1041C34.8203 13.916 32.9638 7.68002 29.2032 2.14221C29.1873 2.12634 29.1715 2.11047 29.1397 2.11047ZM12.082 17.3117C10.4476 17.3117 9.083 15.8043 9.083 13.9477C9.083 12.0912 10.4159 10.5838 12.082 10.5838C13.764 10.5838 15.0968 12.1071 15.081 13.9477C15.081 15.8043 13.7481 17.3117 12.082 17.3117ZM23.1417 17.3117C21.5074 17.3117 20.1428 15.8043 20.1428 13.9477C20.1428 12.0912 21.4756 10.5838 23.1417 10.5838C24.8237 10.5838 26.1566 12.1071 26.1407 13.9477C26.1407 15.8043 24.8237 17.3117 23.1417 17.3117Z" fill="black"/>
</svg>
