<svg width="23" height="30" viewBox="0 0 23 30" fill="none" xmlns="http://www.w3.org/2000/svg">
<g clip-path="url(#clip0_2_150)">
<path d="M22.9632 26.3129C22.9632 27.3253 22.6002 28.1938 21.8739 28.9158C21.1477 29.6392 20.2773 30.0003 19.2607 30.0003H11.9409C8.89129 30.0003 6.28519 28.9229 4.12107 26.7654C1.95637 24.6082 0.875122 22.0117 0.875122 18.9718V4.18853C0.875122 3.14676 1.23562 2.27177 1.95637 1.56187C2.67712 0.853008 3.55757 0.497559 4.59675 0.497559C5.60571 0.497559 6.47265 0.859646 7.19243 1.58299C7.91439 2.30558 8.27589 3.17254 8.27589 4.18596V9.53883H18.6972C19.6434 9.53883 20.454 9.87416 21.1302 10.5453C21.8056 11.2154 22.1426 12.0195 22.1426 12.9586C22.1426 13.8959 21.8056 14.7014 21.1326 15.372C20.4594 16.0416 19.6504 16.3775 18.7083 16.3775H8.27589V18.9684C8.27589 19.9844 8.63054 20.8473 9.34342 21.5592C10.0555 22.2691 10.9201 22.6245 11.9372 22.6245H19.2593C20.2753 22.6245 21.1477 22.987 21.8739 23.71C22.6001 24.4334 22.9632 25.3009 22.9632 26.3129" fill="black"/>
</g>
<defs>
<clipPath id="clip0_2_150">
<rect width="22.0882" height="29.5028" fill="white" transform="translate(0.874878 0.497253)"/>
</clipPath>
</defs>
</svg>
